#!OML:ASF E:\Steps\Project 1\Capture day 1\Session 2\Subject.ASF
:FULLY-SPECIFIED
:DEGREES
204
root 9.18955 16.1709 19.6329 -149.794 -2.72188 180.196
lowerback -22.9326 -1.07853 -4.95914
upperback -1.0502 -0.49628 0.0962711
thorax 11.7476 -0.656566 2.7606
lowerneck -2.17122 2.40292 -7.05631
upperneck -9.56887 3.46843 15.3882
head -2.81562 1.10125 5.84377
rclavicle -7.35503e-015 -9.14409e-015
rhumerus -33.0578 -15.8694 -81.0887
rradius 32.7082
rwrist -1.33049
rhand -9.11369 -49.858
rfingers 7.12502
rthumb 16.837 -79.148
lclavicle -7.35503e-015 -9.14409e-015
lhumerus -28.1744 5.68066 82.981
lradius 22.5321
lwrist -7.05561
lhand -21.4376 -13.2144
lfingers 7.12502
lthumb 4.95179 16.7077
rfemur -33.866 8.13509 20.4446
rtibia 22.4442
rfoot -25.7086 -9.40499
rtoes -30.3132
lfemur -37.6535 -12.4232 -16.4129
ltibia 28.3623
lfoot -15.823 1.36638
ltoes -16.0371
205
root 9.18794 16.1729 19.6245 -149.775 -2.65181 180.242
lowerback -23.0271 -1.03627 -4.91618
upperback -1.03379 -0.44491 0.0844038
thorax 11.8137 -0.632004 2.73901
lowerneck -1.80865 2.16205 -6.86734
upperneck -9.11036 3.11876 15.8703
head -2.70305 0.910338 5.96444
rclavicle -4.96962e-016 -2.18663e-014
rhumerus -33.1577 -16.069 -81.004
rradius 32.5365
rwrist -1.37887
rhand -9.06894 -49.8774
rfingers 7.12502
rthumb 16.8801 -79.1638
lclavicle -4.96962e-016 -2.18663e-014
lhumerus -28.1619 5.69476 82.9819
lradius 22.6162
lwrist -6.99197
lhand -21.3159 -13.4512
lfingers 7.12502
lthumb 5.06931 16.4681
rfemur -33.852 8.18281 20.4668
rtibia 22.4187
rfoot -25.6583 -9.38516
rtoes -30.3093
lfemur -37.596 -12.4009 -16.3732
ltibia 28.2402
lfoot -15.6878 1.46597
ltoes -16.6755
206
root 9.18639 16.1748 19.6175 -149.747 -2.53572 180.233
lowerback -23.1096 -1.02435 -4.94057
upperback -1.00178 -0.41435 0.0712903
thorax 11.8936 -0.620723 2.74801
lowerneck -1.9232 2.26974 -6.82895
upperneck -9.03984 3.25583 15.9146
head -2.67932 0.978749 5.96904
rclavicle 9.0447e-015 -1.19271e-014
rhumerus -33.168 -16.2917 -80.8923
rradius 32.2657
rwrist -1.24173
rhand -9.06983 -49.84
rfingers 7.12502
rthumb 16.8792 -79.1265
lclavicle 9.0447e-015 -1.19271e-014
lhumerus -28.1419 5.6545 83.0344
lradius 22.7096
lwrist -6.89623
lhand -21.445 -13.6353
lfingers 7.12502
lthumb 4.94465 16.287
rfemur -33.8342 8.26702 20.397
rtibia 22.3466
rfoot -25.5563 -9.41037
rtoes -30.302
lfemur -37.5797 -12.3542 -16.4228
ltibia 28.2378
lfoot -15.6748 1.60465
ltoes -17.7362
207
root 9.18434 16.1763 19.6108 -149.695 -2.48068 180.23
lowerback -23.2008 -1.01619 -4.93795
upperback -0.992271 -0.39729 0.0452612
thorax 11.9533 -0.614095 2.72238
lowerneck -2.03215 2.35516 -6.74712
upperneck -8.94946 3.35943 15.976
head -2.64627 1.02856 5.97217
rclavicle 1.44119e-014 -5.96354e-015
rhumerus -33.2356 -16.8718 -80.669
rradius 31.9326
rwrist -0.769556
rhand -9.25849 -49.72
rfingers 7.12502
rthumb 16.6976 -79.0218
lclavicle 1.44119e-014 -5.96354e-015
lhumerus -28.1912 5.4476 83.1048
lradius 22.8167
lwrist -6.87045
lhand -21.6834 -13.6181
lfingers 7.12502
lthumb 4.7145 16.3094
rfemur -33.853 8.30858 20.3548
rtibia 22.3008
rfoot -25.4981 -9.41276
rtoes -30.1832
lfemur -37.6136 -12.3388 -16.4496
ltibia 28.2576
lfoot -15.7076 1.72118
ltoes -18.574
208
root 9.1833 16.1757 19.6063 -149.493 -2.39105 180.314
lowerback -23.4616 -0.958148 -4.86126
upperback -1.01407 -0.333722 0.0262802
thorax 12.0661 -0.585862 2.6769
lowerneck -2.15591 2.42706 -6.66502
upperneck -8.83842 3.44323 16.0538
head -2.60245 1.06963 5.981
rclavicle 5.96354e-016 -3.57812e-015
rhumerus -33.3441 -17.234 -80.5557
rradius 31.7731
rwrist -0.595344
rhand -9.31278 -49.5066
rfingers 7.12502
rthumb 16.6453 -78.8129
lclavicle 5.96354e-016 -3.57812e-015
lhumerus -28.1919 5.16375 83.1907
lradius 22.9522
lwrist -6.80426
lhand -21.6759 -13.3196
lfingers 7.12502
lthumb 4.72171 16.6077
rfemur -34.078 8.31975 20.4047
rtibia 22.3028
rfoot -25.5362 -9.25932
rtoes -30.4715
lfemur -37.833 -12.2023 -16.3675
ltibia 28.2753
lfoot -15.7194 1.75468
ltoes -18.6663
209
root 9.18292 16.1729 19.6043 -149.179 -2.22757 180.47
lowerback -23.63 -0.851169 -4.74349
upperback -1.20361 -0.248536 0.0328576
thorax 11.932 -0.545295 2.64351
lowerneck -2.32498 2.50854 -6.54005
upperneck -8.44163 3.52455 16.0762
head -2.46597 1.13194 5.96184
rclavicle 1.10325e-014 -1.19271e-015
rhumerus -33.6544 -17.4141 -80.3904
rradius 31.6002
rwrist -0.398953
rhand -8.98858 -49.4707
rfingers 7.12502
rthumb 16.9574 -78.7505
lclavicle 1.10325e-014 -1.19271e-015
lhumerus -28.4001 4.77436 83.3029
lradius 23.1063
lwrist -6.55036
lhand -21.5222 -13.185
lfingers 7.12502
lthumb 4.87013 16.739
rfemur -34.4539 8.34593 20.5184
rtibia 22.3424
rfoot -25.6271 -9.03156
rtoes -30.9411
lfemur -38.1446 -11.938 -16.2131
ltibia 28.2077
lfoot -15.6754 1.78994
ltoes -18.9289
210
root 9.18243 16.1719 19.5995 -148.996 -2.07271 180.576
lowerback -24.0191 -0.779495 -4.66382
upperback -1.15235 -0.15513 0.0200363
thorax 12.1973 -0.505953 2.61423
lowerneck -2.35447 2.58411 -6.63148
upperneck -8.52987 3.63216 16.2252
head -2.5028 1.17413 6.02465
rclavicle 1.09332e-015 -2.38542e-015
rhumerus -33.5452 -17.9424 -80.224
rradius 31.1532
rwrist 0.143829
rhand -8.58679 -49.4506
rfingers 7.12502
rthumb 17.3442 -78.6967
lclavicle 1.09332e-015 -2.38542e-015
lhumerus -28.2136 4.54752 83.3803
lradius 23.0552
lwrist -6.42855
lhand -21.4917 -13.3708
lfingers 7.12502
lthumb 4.89956 16.5525
rfemur -34.6214 8.4099 20.5835
rtibia 22.2651
rfoot -25.5465 -8.96514
rtoes -31.3211
lfemur -38.2435 -11.859 -16.0907
ltibia 28.0586
lfoot -15.651 1.91825
ltoes -18.8696
211
root 9.18246 16.1744 19.591 -148.942 -1.91233 180.584
lowerback -24.2703 -0.758762 -4.69795
upperback -1.06794 -0.09614 -0.00289438
thorax 12.4287 -0.485481 2.62829
lowerneck -2.44261 2.59818 -6.68143
upperneck -8.45288 3.64362 16.4064
head -2.46969 1.17729 6.09155
rclavicle 1.33186e-014 -4.77083e-015
rhumerus -33.432 -18.1452 -80.1949
rradius 30.8324
rwrist 0.255607
rhand -8.71061 -49.2785
rfingers 7.12502
rthumb 17.225 -78.5351
lclavicle 1.33186e-014 -4.77083e-015
lhumerus -28.0159 4.51289 83.405
lradius 22.9716
lwrist -6.501
lhand -21.5364 -13.4676
lfingers 7.12502
lthumb 4.85642 16.4568
rfemur -34.5527 8.36295 20.5667
rtibia 21.9698
rfoot -25.2484 -8.80901
rtoes -31.1419
lfemur -38.1346 -11.7578 -16.1721
ltibia 27.8638
lfoot -15.5352 2.20323
ltoes -20.8534
212
root 9.18318 16.1791 19.5791 -148.925 -1.79214 180.522
lowerback -24.1439 -0.771133 -4.81422
upperback -1.18897 -0.102457 -0.0181037
thorax 12.219 -0.493155 2.67474
lowerneck -2.48784 2.51702 -6.59009
upperneck -7.86598 3.4896 16.6523
head -2.27373 1.12212 6.15181
rclavicle -7.45443e-015 3.57812e-015
rhumerus -33.7392 -17.9083 -80.1904
rradius 30.7577
rwrist -0.0044247
rhand -9.12712 -49.1417
rfingers 7.12502
rthumb 16.8241 -78.4329
lclavicle -7.45443e-015 3.57812e-015
lhumerus -28.1917 4.55067 83.3891
lradius 22.939
lwrist -6.58991
lhand -21.508 -13.5447
lfingers 7.12502
lthumb 4.88382 16.3791
rfemur -34.4586 8.59633 20.4016
rtibia 21.9452
rfoot -25.323 -8.91042
rtoes -30.76
lfemur -37.9398 -11.6391 -16.3572
ltibia 27.5842
lfoot -15.3734 2.42188
ltoes -23.0397
213
root 9.18209 16.1826 19.5652 -148.905 -1.72026 180.47
lowerback -24.6282 -0.799719 -4.88448
upperback -0.94358 -0.0669829 -0.0218794
thorax 12.7688 -0.490966 2.72471
lowerneck -2.61436 2.62491 -6.92007
upperneck -8.38585 3.67468 16.8552
head -2.43396 1.18378 6.27851
rclavicle 1.20265e-014 -1.94809e-014
rhumerus -33.3863 -18.0778 -80.2073
rradius 30.4634
rwrist 0.0796452
rhand -9.1027 -49.1634
rfingers 7.12502
rthumb 16.8476 -78.4526
lclavicle 1.20265e-014 -1.94809e-014
lhumerus -27.7041 4.6609 83.4603
lradius 22.7434
lwrist -6.71159
lhand -21.4686 -13.6165
lfingers 7.12502
lthumb 4.92189 16.3064
rfemur -34.2103 8.58173 20.3276
rtibia 21.4887
rfoot -25.1389 -8.85342
rtoes -31.2002
lfemur -37.7556 -11.6728 -16.4496
ltibia 27.3067
lfoot -15.2755 2.50618
ltoes -22.9489
214
root 9.18052 16.1878 19.5518 -148.955 -1.69634 180.453
lowerback -24.6112 -0.833652 -4.86489
upperback -0.993489 -0.126109 -0.0207746
thorax 12.706 -0.517115 2.69358
lowerneck -2.50176 2.7236 -7.24377
upperneck -8.38316 3.82823 16.9828
head -2.47894 1.26598 6.37152
rclavicle 9.0447e-015 1.15295e-014
rhumerus -33.5269 -18.2613 -80.0852
rradius 30.1825
rwrist 0.3513
rhand -8.94956 -49.51
rfingers 7.12502
rthumb 16.995 -78.7865
lclavicle 9.0447e-015 1.15295e-014
lhumerus -27.8213 4.70885 83.4284
lradius 22.7377
lwrist -6.66105
lhand -21.3741 -13.3785
lfingers 7.12502
lthumb 5.0131 16.5422
rfemur -33.9015 8.60025 20.3132
rtibia 21.0764
rfoot -24.8393 -8.94522
rtoes -31.6634
lfemur -37.4905 -11.6922 -16.4994
ltibia 27.0227
lfoot -15.1666 2.55856
ltoes -23.0642
215
root 9.18204 16.1974 19.5377 -149.112 -1.72694 180.467
lowerback -24.2715 -0.91237 -4.82143
upperback -1.166 -0.284056 0.0149076
thorax 12.3313 -0.581925 2.65398
lowerneck -2.64615 2.80276 -7.2796
upperneck -7.89733 3.90413 17.1119
head -2.3253 1.33295 6.41421
rclavicle -4.07509e-015 -1.27222e-014
rhumerus -33.9246 -18.3728 -79.9218
rradius 29.9428
rwrist 0.765484
rhand -9.00874 -49.6361
rfingers 7.12502
rthumb 16.938 -78.9175
lclavicle -4.07509e-015 -1.27222e-014
lhumerus -28.246 4.79058 83.3411
lradius 22.8105
lwrist -6.54107
lhand -21.2405 -13.2068
lfingers 7.12502
lthumb 5.14216 16.7108
rfemur -33.4479 8.60754 20.3892
rtibia 20.6312
rfoot -24.5607 -9.04708
rtoes -31.8215
lfemur -37.0121 -11.8847 -16.4104
ltibia 26.4834
lfoot -15.0179 2.54943
ltoes -21.7331
